<svg xmlns="http://www.w3.org/2000/svg" xmlns:xlink="http://www.w3.org/1999/xlink" id="_&#xB808;&#xC774;&#xC5B4;_2" data-name="&#xB808;&#xC774;&#xC5B4; 2" viewBox="0 0 323.54 100"><defs><style>      .cls-1 {        fill: url(#_무제_그라디언트_17);      }      .cls-2 {        fill: #fff;      }      .cls-3 {        fill: url(#_무제_그라디언트_17-2);      }      .cls-4 {        fill: url(#_무제_그라디언트_17-5);      }      .cls-5 {        fill: url(#_무제_그라디언트_17-6);      }      .cls-6 {        fill: url(#_무제_그라디언트_17-3);      }      .cls-7 {        fill: url(#_무제_그라디언트_17-4);      }    </style><linearGradient id="_&#xBB34;&#xC81C;_&#xADF8;&#xB77C;&#xB514;&#xC5B8;&#xD2B8;_17" data-name="&#xBB34;&#xC81C; &#xADF8;&#xB77C;&#xB514;&#xC5B8;&#xD2B8; 17" x1="-1.11" y1="27.18" x2="239.22" y2="27.18" gradientUnits="userSpaceOnUse"><stop offset="0" stop-color="#73dcdb"></stop><stop offset="0" stop-color="#49cdea"></stop><stop offset="0" stop-color="#31c5f3"></stop><stop offset="1" stop-color="#3853a4"></stop></linearGradient><linearGradient id="_&#xBB34;&#xC81C;_&#xADF8;&#xB77C;&#xB514;&#xC5B8;&#xD2B8;_17-2" data-name="&#xBB34;&#xC81C; &#xADF8;&#xB77C;&#xB514;&#xC5B8;&#xD2B8; 17" x1="-1.11" y1="34.07" x2="239.22" y2="34.07" xlink:href="#_&#xBB34;&#xC81C;_&#xADF8;&#xB77C;&#xB514;&#xC5B8;&#xD2B8;_17"></linearGradient><linearGradient id="_&#xBB34;&#xC81C;_&#xADF8;&#xB77C;&#xB514;&#xC5B8;&#xD2B8;_17-3" data-name="&#xBB34;&#xC81C; &#xADF8;&#xB77C;&#xB514;&#xC5B8;&#xD2B8; 17" x1="-1.11" x2="239.22" xlink:href="#_&#xBB34;&#xC81C;_&#xADF8;&#xB77C;&#xB514;&#xC5B8;&#xD2B8;_17"></linearGradient><linearGradient id="_&#xBB34;&#xC81C;_&#xADF8;&#xB77C;&#xB514;&#xC5B8;&#xD2B8;_17-4" data-name="&#xBB34;&#xC81C; &#xADF8;&#xB77C;&#xB514;&#xC5B8;&#xD2B8; 17" x1="-1.11" y1="34.07" x2="239.22" y2="34.07" xlink:href="#_&#xBB34;&#xC81C;_&#xADF8;&#xB77C;&#xB514;&#xC5B8;&#xD2B8;_17"></linearGradient><linearGradient id="_&#xBB34;&#xC81C;_&#xADF8;&#xB77C;&#xB514;&#xC5B8;&#xD2B8;_17-5" data-name="&#xBB34;&#xC81C; &#xADF8;&#xB77C;&#xB514;&#xC5B8;&#xD2B8; 17" x1="-1.11" x2="239.22" xlink:href="#_&#xBB34;&#xC81C;_&#xADF8;&#xB77C;&#xB514;&#xC5B8;&#xD2B8;_17"></linearGradient><linearGradient id="_&#xBB34;&#xC81C;_&#xADF8;&#xB77C;&#xB514;&#xC5B8;&#xD2B8;_17-6" data-name="&#xBB34;&#xC81C; &#xADF8;&#xB77C;&#xB514;&#xC5B8;&#xD2B8; 17" x1="-1.11" y1="35.43" x2="239.22" y2="35.43" xlink:href="#_&#xBB34;&#xC81C;_&#xADF8;&#xB77C;&#xB514;&#xC5B8;&#xD2B8;_17"></linearGradient></defs><g id="Layer_1" data-name="Layer 1"><g><g><path class="cls-2" d="M96.04,83.06v2.53h-19.49v-2.53h13.72c.35-1.8,.42-3.21,.44-4.45h-11.75v-2.55h14.79v1.53c0,1.44,0,3.24-.4,5.47h2.69Zm-14.21,11.87h12.41v2.48h-15.49v-6.35h11.87v-1.46h-11.89v-2.48h14.98v6.3h-11.87v1.51Z"></path><path class="cls-2" d="M116.36,92.49v2.63h-19.49v-2.63h8.18v-3.33h-5.94v-7.59h12.01v-2.41h-12.03v-2.55h15.07v7.47h-11.99v2.51h12.48v2.58h-6.52v3.33h8.22Z"></path><path class="cls-2" d="M128.28,86.02h-10.16v-9.92h3.06v2.58h4.09v-2.58h3.01v3.6h3.83v-4.52h3.08v11.41h-3.08v-4.33h-3.83v3.77Zm7.52,8.81v2.48h-14.77v-6.13h11.1v-1.24h-11.15v-2.48h14.21v6.03h-11.12v1.34h11.73Zm-10.54-13.72h-4.09v2.38h4.09v-2.38Z"></path><path class="cls-2" d="M153.08,84.71c0,4.94-2.41,8.03-5.65,8.03s-5.65-3.09-5.65-8.03,2.38-7.98,5.65-7.98,5.65,3.06,5.65,7.98Zm-2.97,0c0-3.31-1.1-5.08-2.69-5.08s-2.69,1.78-2.69,5.08,1.07,5.11,2.69,5.11,2.69-1.78,2.69-5.11Zm11.52,1.56h-3.13v11.31h-3.08v-22.4h3.08v8.44h3.13v2.65Z"></path><path class="cls-2" d="M173.9,84.71c0,4.94-2.41,8.03-5.65,8.03s-5.65-3.09-5.65-8.03,2.41-7.98,5.65-7.98,5.65,3.06,5.65,7.98Zm-8.34,0c0,3.33,1.1,5.11,2.69,5.11s2.69-1.78,2.69-5.11-1.1-5.08-2.69-5.08-2.69,1.78-2.69,5.08Zm14.25-9.56v22.48h-3.08v-22.48h3.08Z"></path><path class="cls-2" d="M186.54,89.94c3.2-.02,5.79-.15,8.74-.61l.28,2.55c-3.36,.53-6.38,.63-10.23,.63h-1.87v-15.49h10.89v2.6h-7.8v3.65h6.92v2.51h-6.92v4.16Zm13.69-14.77v22.43h-3.11v-22.43h3.11Z"></path><path class="cls-2" d="M212.93,87.97c-3.29,0-5.86-2.41-5.86-5.67s2.57-5.69,5.86-5.69,5.84,2.38,5.84,5.69-2.55,5.67-5.84,5.67Zm0-2.77c1.61,0,2.83-1.09,2.83-2.89s-1.22-2.92-2.83-2.92-2.85,1.07-2.85,2.92,1.26,2.89,2.85,2.89Zm12.24,9.44v2.55h-14.86v-7.49h3.08v4.94h11.78Zm-.54-3.36h-3.11v-16.08h3.11v16.08Z"></path><path class="cls-2" d="M245.71,75.15v22.4h-2.92v-11.19h-1.75v10.19h-2.87v-6.49l-1.73,2.41c-1.92-1.07-3.15-2.87-3.93-5.11-.7,2.58-1.96,4.69-3.97,5.94l-1.85-2.43c3.2-1.95,4.23-5.91,4.23-10.22v-.61h-3.53v-2.6h9.74v2.6h-3.22v.61c0,3.92,1.07,7.64,4.25,9.37v-14.5h2.87v8.22h1.75v-8.59h2.92Z"></path><path class="cls-2" d="M256.71,77.95c0,6.28-1.78,11.41-7.78,15.06l-1.8-2.24c4.32-2.63,6.15-5.86,6.54-10.27h-5.44v-2.55h8.48Zm9.14-2.77v22.4h-2.94v-11.38h-1.92v10.44h-2.87v-20.87h2.87v7.86h1.92v-8.44h2.94Z"></path><path class="cls-2" d="M278.67,85.97h-10.3v-9.83h3.04v2.68h4.23v-2.68h3.04v9.83Zm-5.12,8.95h11.73v2.48h-14.79v-6.18h11.15v-1.36h-11.17v-2.43h14.21v6.08h-11.12v1.41Zm2.08-13.7h-4.23v2.24h4.23v-2.24Zm11.87-1.73v2.6h-2.83v4.45h-3.08v-11.38h3.08v4.33h2.83Z"></path><path class="cls-2" d="M306.64,94.63v2.55h-15.96v-6.67h2.99v-2.99c-1.89,.1-3.69,.12-5.3,.12l-.4-2.55c3.93-.02,9.16-.07,13.69-.68l.21,2.29c-1.68,.32-3.41,.51-5.14,.63v4.23h-2.97v3.06h12.87Zm-17.1-14.69c0-2.38,2.22-4.01,5.37-4.01s5.35,1.63,5.35,4.01-2.22,3.99-5.35,3.99-5.37-1.61-5.37-3.99Zm2.92,0c0,1.09,1,1.65,2.45,1.65s2.43-.56,2.43-1.65-1-1.68-2.43-1.68-2.45,.58-2.45,1.68Zm10.63,8.25v-13.01h3.08v16.98h-3.08v-1.78h-4.04v-2.19h4.04Z"></path></g><path class="cls-1" d="M76.96,46.3V0h9.14V46.49h7.08v7.86h-8.11c-5.09,0-8.11-3.16-8.11-8.05Z"></path><path class="cls-3" d="M124.1,54.35h-16.94c-5.09,0-8.31-3.16-8.31-8.05V21.83c0-4.89,3.03-8.05,8.11-8.05h17.19c5.09,0,8.11,3.16,8.11,8.05v24.47c0,4.89-3.09,8.05-8.18,8.05Zm-16.1-32.71v24.86h15.13V21.64h-15.13Z"></path><path class="cls-6" d="M155.79,13.78h10.3c5.09,0,8.11,3.16,8.11,8.05v24.47c0,4.89-3.03,8.05-8.11,8.05h-24.79V0h9.14V19.77l5.34-5.99Zm9.27,32.71V21.64h-14.62v24.86h14.62Z"></path><path class="cls-7" d="M200.99,54.35h-10.3c-5.09,0-8.11-3.16-8.11-8.05V21.83c0-4.89,3.03-8.05,8.11-8.05h24.86V54.35h-9.14v-6.05l-5.41,6.05Zm5.41-32.71h-14.68v24.86h14.68V21.64Z"></path><path class="cls-4" d="M224.88,46.3V0h9.14V46.49h7.08v7.86h-8.11c-5.09,0-8.11-3.16-8.11-8.05Z"></path><path class="cls-5" d="M16.48,.65C7.43,.65,1.82,5.91,1.16,14.22c-.04,.55-.07,1.11-.07,1.68V54.96c0,9.28,5.74,15.26,15.38,15.26h19.53l.68-.76,26.82-30.05,.08-.2V.65H16.48Zm29.78,54.68h0s-27.83,0-27.83,0V15.54h0s27.83,0,27.83,0V55.33Z"></path><path class="cls-2" d="M274.34,2.57V54.35h-9.53V2.57h9.53Z"></path><path class="cls-2" d="M282.65,10.5V2.57h40.89l-6.76,7.92h-10.95V54.35h-9.6V10.5h-13.59Z"></path><path class="cls-2" d="M46.26,58.75v26.61H12.57L0,100H45.77c10.99,0,17.21-7.2,17.7-17.58h.12V39.2l-17.33,19.54Z"></path></g></g></svg>